# xmcd
#
# Track frame offsets:
#	150
#	9280
#	19825
#	31320
#	40467
#	52622
#	63900
#	71710
#	79835
#	92705
#	103715
#	113460
#	126150
#	137615
#	150510
#	159492
#	169317
#	182840
#	192535
#	203835
#	213642
#	222037
#
# Disc length: 3122 seconds
#
# Revision: 1
# Processed by: cddbd v1.5.2PL0 Copyright (c) Steve Scherf et al.
# Submitted via: audiograbber 1.83.01
#
DISCID=2b0c3016
DTITLE=Various Artist - Stompin' 17: Crazed Rhythm and Blues Ponders
DYEAR=1900
DGENRE=Blues
TTITLE0=John J. Moses - Fickle Woman
TTITLE1=King Solomon - Uncle John's Swingin' Farm
TTITLE2=Syl Johnson - Little Sally Walker
TTITLE3=Dean and Jean - Oh Yeah
TTITLE4=Johnnie Littlejohn - Bloody Tears
TTITLE5=J. Mercy Baby - The Rock and Stomp
TTITLE6=Earl Chatman - Take Two Steps Back
TTITLE7=Jesse Butler - Dancin' Fever
TTITLE8=Viola Russell - Whisky Headman
TTITLE9=Roy Wright - I'm Going Crazy
TTITLE10=Little Sonny Warner - Psycho Serenade
TTITLE11=Little Irvin - Who's Lovin' You
TTITLE12=Lucky Carmichael - I'm Comin' Home
TTITLE13=Teddy McRae - Hold Out Baby
TTITLE14=Gus Jenkins - Slow Down
TTITLE15=Clarence W. Samuels - Putt Putt Putt
TTITLE16=Jimmy Toliver - Hootchie Kootchie Koo
TTITLE17=Earl Chatman - Loving You Baby
TTITLE18=Clarence W. Samuels - Slippity
TTITLE19=The Dukes Of Rhythm - Buddha's Boogie
TTITLE20=Charles Epps - Rock With The Boogie
TTITLE21=Paul Kimble - That Big Fat Mama
EXTD=
EXTT0=
EXTT1=
EXTT2=
EXTT3=
EXTT4=
EXTT5=
EXTT6=
EXTT7=
EXTT8=
EXTT9=
EXTT10=
EXTT11=
EXTT12=
EXTT13=
EXTT14=
EXTT15=
EXTT16=
EXTT17=
EXTT18=
EXTT19=
EXTT20=
EXTT21=
PLAYORDER=
